<svg xmlns="http://www.w3.org/2000/svg" width="512" height="512" viewBox="0 0 512 512">
  <defs>
    <linearGradient id="grad1" x1="0%" y1="0%" x2="100%" y2="100%">
      <stop offset="0%" style="stop-color:#6B46C1;stop-opacity:1" />
      <stop offset="100%" style="stop-color:#F59E0B;stop-opacity:1" />
    </linearGradient>
  </defs>
  <rect width="512" height="512" fill="url(#grad1)" rx="100"/>
  <g fill="white" transform="translate(256, 256)">
    <!-- K letter stylized with spiritual elements -->
    <path d="M -80,-120 L -80,120 L -60,120 L -60,20 L 40,120 L 65,120 L -30,30 L 70,-120 L 45,-120 L -60,-10 L -60,-120 Z" 
          fill="white" stroke="white" stroke-width="2"/>
    <!-- Crown symbol above (representing KETER - Crown in Kabbalah) -->
    <g transform="translate(0,-150)">
      <path d="M -30,0 L -20,-20 L -10,0 L 0,-25 L 10,0 L 20,-20 L 30,0 L 20,10 L -20,10 Z" 
            fill="#FFD700" stroke="#FFD700" stroke-width="1.5"/>
      <circle cx="-20" cy="-20" r="4" fill="#FFD700"/>
      <circle cx="0" cy="-25" r="5" fill="#FFD700"/>
      <circle cx="20" cy="-20" r="4" fill="#FFD700"/>
    </g>
    <!-- Small sparkles -->
    <circle cx="90" cy="-80" r="3" fill="white" opacity="0.8"/>
    <circle cx="-90" cy="80" r="3" fill="white" opacity="0.8"/>
    <circle cx="85" cy="85" r="2" fill="white" opacity="0.6"/>
    <circle cx="-85" cy="-85" r="2" fill="white" opacity="0.6"/>
  </g>
</svg>
